HIERARCHY
ROOT root
{
	OFFSET	0	13.1	24.9
	CHANNELS 6  Xposition Yposition Zposition Xrotation Yrotation Zrotation
	JOINT spine_1
	{
		OFFSET	0	9.99999	0
		CHANNELS 3  Xrotation Yrotation Zrotation
		JOINT spine_2
		{
			OFFSET	0	112	-10
			CHANNELS 3  Xrotation Yrotation Zrotation
			JOINT spine_3
			{
				OFFSET	0	206.5	19.3
				CHANNELS 3  Xrotation Yrotation Zrotation
				JOINT spine_4
				{
					OFFSET	0	110.4	14.6
					CHANNELS 3  Xrotation Yrotation Zrotation
					JOINT neck_1
					{
						OFFSET	0	71.8	-50.3
						CHANNELS 3  Xrotation Yrotation Zrotation
						JOINT neck_2
						{
							OFFSET	0	86.2	-25.8
							CHANNELS 3  Xrotation Yrotation Zrotation
							JOINT head_ee
							{
								OFFSET	0	179.8	-8.7
								CHANNELS 3  Xrotation Yrotation Zrotation
								End Site
								{
									OFFSET	1	0	0
								}
							}
						}
					}
					JOINT left_clavicle
					{
						OFFSET	-43.2	22.4	-70.8
						CHANNELS 3  Xrotation Yrotation Zrotation
						JOINT left_shoulder
						{
							OFFSET	-93.9	-5.79999	48.7
							CHANNELS 3  Xrotation Yrotation Zrotation
							JOINT left_elbow
							{
								OFFSET	-291.4	-30.8	15.2
								CHANNELS 3  Xrotation Yrotation Zrotation
								JOINT left_lowarm_twist
								{
									OFFSET	-110.7	-3.89999	13.6
									CHANNELS 3  Xrotation Yrotation Zrotation
									JOINT left_hand
									{
										OFFSET	-110.7	-3.89999	13.6
										CHANNELS 3  Xrotation Yrotation Zrotation
										JOINT left_ee
										{
											OFFSET	-80.8	-5.10001	12.1
											CHANNELS 3  Xrotation Yrotation Zrotation
											End Site
											{
												OFFSET	1	0	0
											}
										}
									}
								}
							}
						}
					}
					JOINT right_clavicle
					{
						OFFSET	43.2	22.4	-70.8
						CHANNELS 3  Xrotation Yrotation Zrotation
						JOINT right_shoulder
						{
							OFFSET	93.9	-5.79999	48.7
							CHANNELS 3  Xrotation Yrotation Zrotation
							JOINT right_elbow
							{
								OFFSET	291.4	-30.8	15.2
								CHANNELS 3  Xrotation Yrotation Zrotation
								JOINT right_lowarm_twist
								{
									OFFSET	110.7	-3.89999	13.6
									CHANNELS 3  Xrotation Yrotation Zrotation
									JOINT right_hand
									{
										OFFSET	110.7	-3.89999	13.6
										CHANNELS 3  Xrotation Yrotation Zrotation
										JOINT right_ee
										{
											OFFSET	80.8	-5.10001	12.1
											CHANNELS 3  Xrotation Yrotation Zrotation
											End Site
											{
												OFFSET	1	0	0
											}
										}
									}
								}
							}
						}
					}
				}
			}
		}
	}
	JOINT left_hip
	{
		OFFSET	-82.8	-127.5	0.300001
		CHANNELS 3  Xrotation Yrotation Zrotation
		JOINT left_knee
		{
			OFFSET	-28.2	-396.7	2.2
			CHANNELS 3  Xrotation Yrotation Zrotation
			JOINT left_ankle
			{
				OFFSET	-11.7	-411.3	35.4
				CHANNELS 3  Xrotation Yrotation Zrotation
				JOINT left_toes
				{
					OFFSET	0	-60	-88.6
					CHANNELS 3  Xrotation Yrotation Zrotation
					JOINT left_foot_ee
					{
						OFFSET	-22.5	-16.5	-42.2
						CHANNELS 3  Xrotation Yrotation Zrotation
						End Site
						{
							OFFSET	1	0	0
						}
					}
				}
			}
		}
	}
	JOINT right_hip
	{
		OFFSET	82.8	-127.5	0.300001
		CHANNELS 3  Xrotation Yrotation Zrotation
		JOINT right_knee
		{
			OFFSET	28.2	-396.7	2.2
			CHANNELS 3  Xrotation Yrotation Zrotation
			JOINT right_ankle
			{
				OFFSET	11.7	-411.3	35.4
				CHANNELS 3  Xrotation Yrotation Zrotation
				JOINT right_toes
				{
					OFFSET	0	-60	-88.6
					CHANNELS 3  Xrotation Yrotation Zrotation
					JOINT right_foot_ee
					{
						OFFSET	22.5	-16.5	-42.2
						CHANNELS 3  Xrotation Yrotation Zrotation
						End Site
						{
							OFFSET	1	0	0
						}
					}
				}
			}
		}
	}
}
MOTION
Frames: 10
Frame Time: 0.02
1263.99677656 726.38 -1775.14038194 -17.3721657674 34.8194723756 14.9060230925 7.51021 -0.0723468 -0.306659 7.51026 -0.0526868 -0.310641 7.51047 -0.0274829 -0.313876 7.51034 -0.0767086 -0.305597 -23.1404 -11.7553 -5.3631 -23.8182 -20.2614 -10.6733 -0.0 0.0 -0.0 0.507163 9.38666 1.99335 -25.8135 -20.7591 66.6211 6.542 -72.8165 4.82702 -79.6789 -7.78109 5.28395 -4.79702 25.2436 -17.3043 -0.0 0.0 -0.0 1.88478 -18.3477 -5.00007 -25.9418 22.8381 -61.2607 3.35135 58.9235 -1.89352 -6.098 0.25435 -0.736499 2.30966 -11.1676 -19.7379 0.0 0.0 0.0 46.6623 -27.042 3.18918 -69.7501 -3.33951 9.50599 26.1156 0.233257 -3.4799 -2.13158 0.0 0.0 -0.0 0.0 -0.0 13.4129 -5.8616 -15.035 4.43918 0.208093 0.649139 29.8802 -23.7142 4.06355 33.0043 -0.0 -0.0 0.0 0.0 0.0 
1274.52270915 719.104 -1801.4776671 -17.6609539745 31.7245202571 14.0121072623 7.55559 0.00135116 0.0185759 7.5556 0.000166391 0.0186242 7.55559 -0.00132036 0.0185781 7.55559 0.00163028 0.0185535 -21.7576 -11.9476 -4.93507 -22.4118 -20.708 -10.0799 -0.0 0.0 -0.0 0.380446 11.0609 1.95451 -24.397 -19.9148 69.0442 12.639 -80.8529 10.7787 -81.1424 -7.96659 5.2629 -4.70879 26.7978 -15.6936 -0.0 0.0 -0.0 2.45329 -17.8333 -5.83928 -25.2019 22.9444 -61.4534 3.55009 60.361 -2.06502 -5.31156 0.217155 -0.64307 2.02422 -10.5878 -17.6066 0.0 0.0 0.0 47.5053 -22.0923 1.42881 -62.0577 -2.42622 8.74815 22.4771 -3.06511 -3.07925 -2.91552 0.0 0.0 -0.0 0.0 -0.0 12.9334 -5.56134 -15.5446 3.8077 0.175425 0.557789 30.5578 -23.6242 4.13882 35.1289 -0.0 -0.0 0.0 0.0 0.0 
1274.95806677 719.104 -1801.60749103 -17.6466433697 31.651679941 13.9848642778 7.55559 0.00135116 0.0185759 7.5556 0.000166391 0.0186242 7.55559 -0.00132036 0.0185781 7.55559 0.00163028 0.0185535 -21.7576 -11.9476 -4.93507 -22.4118 -20.708 -10.0799 -0.0 0.0 -0.0 0.380446 11.0609 1.95451 -24.397 -19.9148 69.0442 12.639 -80.8529 10.7787 -81.1424 -7.96659 5.2629 -4.70879 26.7978 -15.6936 -0.0 0.0 -0.0 2.45329 -17.8333 -5.83928 -25.2019 22.9444 -61.4534 3.55009 60.361 -2.06502 -5.31156 0.217155 -0.64307 2.02422 -10.5878 -17.6066 0.0 0.0 0.0 47.5053 -22.0923 1.42881 -62.0577 -2.42622 8.74815 22.4771 -3.06511 -3.07925 -2.91552 0.0 0.0 -0.0 0.0 -0.0 12.9334 -5.56134 -15.5446 3.8077 0.175425 0.557789 30.5578 -23.6242 4.13882 35.1289 -0.0 -0.0 0.0 0.0 0.0 
1266.99986139 722.131 -1821.68642099 -16.8020598462 31.0503935162 14.447671967 7.20574 0.104084 0.160264 7.20575 0.0936748 0.166563 7.206 0.0790246 0.173992 7.20598 0.105512 0.159328 -22.8456 -11.8036 -5.09176 -23.5323 -20.4515 -10.3883 -0.0 0.0 -0.0 0.432141 14.2122 2.37476 -22.6756 -19.3031 71.968 10.3038 -78.857 8.47963 -82.9572 -8.19564 5.23017 -4.73625 26.5781 -16.007 -0.0 0.0 -0.0 3.78825 -17.6712 -7.89219 -22.8026 23.2171 -61.023 3.94491 62.8825 -2.41248 -5.19835 0.211907 -0.62958 1.22284 -9.80934 -11.9998 0.0 0.0 0.0 48.215 -12.6812 -1.1765 -48.4364 -1.08874 7.13611 13.9926 -7.61005 -2.03098 -4.24663 0.0 0.0 -0.0 0.0 -0.0 12.0172 -4.0883 -16.5641 3.5821 0.163999 0.525069 30.0024 -26.0239 4.13332 37.4902 -0.0 -0.0 0.0 0.0 0.0 
1240.88606365 727.572 -1832.77368313 -17.0351431955 33.4622369334 15.399335192 6.89739 0.14898 0.143207 6.89739 0.139566 0.152396 6.89775 0.125079 0.164494 6.89775 0.149488 0.142676 -23.67 -11.6549 -5.23684 -24.3718 -20.1677 -10.623 -0.0 0.0 -0.0 0.112817 15.0237 1.94821 -22.559 -18.9732 71.7229 7.33112 -74.5649 5.58448 -82.4847 -8.13612 5.23939 -4.95581 26.0649 -17.6607 -0.0 0.0 -0.0 4.4884 -18.161 -8.97635 -21.2589 23.2379 -60.1722 4.06402 63.5668 -2.51882 -5.13289 0.208885 -0.621775 0.611426 -10.4871 -8.27159 0.0 0.0 0.0 48.7866 -7.04398 -4.50224 -41.5328 -0.567155 6.21151 8.60521 -10.1478 -1.293 -4.79249 0.0 0.0 -0.0 0.0 -0.0 11.3317 -2.55586 -17.0326 3.36314 0.153033 0.493269 32.0248 -27.0547 4.39446 39.4017 -0.0 -0.0 0.0 0.0 0.0 
1215.19553844 727.134 -1839.1317694 -17.2223108057 36.5758301849 16.392695343 6.79822 0.0880024 0.132285 6.79822 0.0794065 0.137616 6.7984 0.0662691 0.144403 6.79838 0.0882431 0.132124 -23.9349 -11.4544 -5.30678 -24.6153 -19.7721 -10.6366 -0.0 0.0 -0.0 0.158972 15.0456 2.0245 -22.203 -19.4793 71.8455 5.1644 -68.6244 3.5258 -81.6255 -8.02767 5.2549 -5.43873 26.1111 -20.5152 -0.0 0.0 -0.0 4.36429 -18.8426 -8.78125 -22.0453 23.1182 -59.5415 4.49605 65.7989 -2.90943 -4.91902 0.199072 -0.596251 0.260369 -9.94187 -5.79391 0.0 0.0 0.0 49.8246 -0.519286 -8.24102 -32.9414 -0.0797904 4.98577 1.07592 -13.9067 -0.169706 -5.50992 0.0 0.0 -0.0 0.0 -0.0 10.8182 -0.239299 -17.0716 3.054 0.137758 0.448305 33.3099 -28.2986 4.57845 40.7795 -0.0 -0.0 0.0 0.0 0.0 
1189.20553726 730.621 -1842.12338613 -17.8723994279 40.242009623 16.9698290325 6.73632 0.0929276 0.155909 6.73633 0.0828184 0.161507 6.73655 0.0672634 0.168579 6.73653 0.0930431 0.15584 -23.8909 -11.6847 -5.15162 -24.6163 -20.2795 -10.6109 -0.0 0.0 -0.0 0.171651 14.3256 1.96509 -20.6989 -20.7721 72.9049 5.21232 -68.8029 3.57045 -82.067 -8.08344 5.24714 -5.42357 26.2248 -20.3358 -0.0 0.0 -0.0 4.19498 -19.0389 -8.52298 -21.7886 23.1707 -58.8589 4.80349 67.1818 -3.19138 -4.29286 0.170893 -0.521318 0.294625 -9.25223 -5.7411 0.0 0.0 0.0 49.5088 1.59026 -8.3225 -29.1173 0.0768639 4.41994 0.814896 -12.2159 -0.127145 -5.70676 0.0 0.0 -0.0 0.0 -0.0 10.0267 1.03916 -17.2188 2.7157 0.121321 0.399006 34.1416 -27.9806 4.66066 40.6004 -0.0 -0.0 0.0 0.0 0.0 
1175.53738184 730.621 -1834.98795746 -18.4620868148 42.2897571267 17.8637456637 6.73632 0.0929276 0.155909 6.73633 0.0828184 0.161507 6.73655 0.0672634 0.168579 6.73653 0.0930431 0.15584 -23.8909 -11.6847 -5.15162 -24.6163 -20.2795 -10.6109 -0.0 0.0 -0.0 0.171651 14.3256 1.96509 -20.6989 -20.7721 72.9049 5.21232 -68.8029 3.57045 -82.067 -8.08344 5.24714 -5.42357 26.2248 -20.3358 -0.0 0.0 -0.0 4.19498 -19.0389 -8.52298 -21.7886 23.1707 -58.8589 4.80349 67.1818 -3.19138 -4.29286 0.170893 -0.521318 0.294625 -9.25223 -5.7411 0.0 0.0 0.0 49.5088 1.59026 -8.3225 -29.1173 0.0768639 4.41994 0.814896 -12.2159 -0.127145 -5.70676 0.0 0.0 -0.0 0.0 -0.0 10.0267 1.03916 -17.2188 2.7157 0.121321 0.399006 34.1416 -27.9806 4.66066 40.6004 -0.0 -0.0 0.0 0.0 0.0 
1154.79679756 728.978 -1845.16494729 -19.2012154257 44.7472579298 19.1707411166 6.74946 0.0814956 0.147073 6.74947 0.0719718 0.151961 6.74964 0.0573986 0.158043 6.74962 0.0816381 0.146994 -23.5701 -12.0226 -4.77495 -24.3578 -21.071 -10.3811 -0.0 0.0 -0.0 0.187471 13.3064 1.87775 -18.4783 -22.5579 74.4488 5.27295 -69.0247 3.62702 -82.6978 -8.16298 5.23529 -5.39733 26.3816 -20.0573 -0.0 0.0 -0.0 3.89387 -19.7197 -8.0703 -22.2541 23.2821 -58.1901 5.27657 69.0378 -3.6304 -3.37686 0.131153 -0.411163 0.364215 -8.27084 -5.80203 0.0 0.0 0.0 48.7613 4.46026 -8.60282 -24.5066 0.21499 3.72602 0.458356 -9.78955 -0.0705254 -5.98844 0.0 0.0 -0.0 0.0 -0.0 9.62521 2.70362 -17.3686 2.88931 0.129719 0.424316 35.3103 -27.3232 4.76642 40.0386 -0.0 -0.0 0.0 0.0 0.0 
1146.16767855 728.978 -1839.96017445 -19.6549069114 46.0164949996 19.8080814615 6.74946 0.0814956 0.147073 6.74947 0.0719718 0.151961 6.74964 0.0573986 0.158043 6.74962 0.0816381 0.146994 -23.5701 -12.0226 -4.77495 -24.3578 -21.071 -10.3811 -0.0 0.0 -0.0 0.187471 13.3064 1.87775 -18.4783 -22.5579 74.4488 5.27295 -69.0247 3.62702 -82.6978 -8.16298 5.23529 -5.39733 26.3816 -20.0573 -0.0 0.0 -0.0 3.89387 -19.7197 -8.0703 -22.2541 23.2821 -58.1901 5.27657 69.0378 -3.6304 -3.37686 0.131153 -0.411163 0.364215 -8.27084 -5.80203 0.0 0.0 0.0 48.7613 4.46026 -8.60282 -24.5066 0.21499 3.72602 0.458356 -9.78955 -0.0705254 -5.98844 0.0 0.0 -0.0 0.0 -0.0 9.62521 2.70362 -17.3686 2.88931 0.129719 0.424316 35.3103 -27.3232 4.76642 40.0386 -0.0 -0.0 0.0 0.0 0.0 
